<svg xmlns="http://www.w3.org/2000/svg" width="970.5" height="269.5" viewBox="155.5 280.0 970.5 269.5"><path fill="#FFFFFF" d="M236.222 388.12L341.068 457.677C356.908 468.088 392.087 492.715 408.311 497.78L408.458 525.001C380.593 524.571 351.801 524.977 323.866 525.018L323.889 518.359L323.84 484.555C295.689 466.706 268.093 447.73 239.719 429.914C233.164 433.066 218.259 443.247 211.742 447.413C201.45 453.992 189.477 460.889 179.542 467.63C179.824 452.913 179.958 438.193 179.945 423.472C197.18 412.314 220.435 399.396 236.222 388.12Z"/><path fill="#FFFFFF" d="M179.621 304.42L290.094 304.473L290.231 381.982C282.905 377.844 275.6 373.668 268.316 369.456C258.465 363.605 247.326 357.791 237.196 352.271C219.689 363.861 198.096 375.434 179.667 387.257C179.483 359.645 179.468 332.032 179.621 304.42Z"/><path fill="#FFFFFF" d="M322.72 304.44L354.158 304.349C353.233 332.463 353.775 365.017 353.942 393.354C361.828 399.883 399.165 423.964 408.229 425.996C408.103 438.943 408.227 452.035 408.256 464.993C389.252 451.922 368.766 439.955 349.967 426.357C340.977 419.855 331.066 414.181 322.552 406.99C322.834 372.807 322.89 338.623 322.72 304.44Z"/><path fill="#FFFFFF" d="M239.077 466.219C241.078 466.634 286.419 495.817 291.328 498.906L291.406 525.161L233.737 525.197C215.825 525.063 197.912 525.045 179.999 525.143L179.899 503.25C199.564 491.026 219.299 478.17 239.077 466.219Z"/><path fill="#FFFFFF" d="M982.984 401.227C996.733 384.433 1020.98 388.167 1025.01 407.535C1027.13 417.774 1025.62 444.608 1025.56 455.841L1005.42 455.952C1005.33 446.779 1007.66 417.012 1002.31 411.344C1000.52 409.456 997.502 408.593 994.938 408.667C992.859 408.726 990.98 409.621 989.558 411.126C983.391 417.65 985.625 439.901 985.703 449.13C985.737 451.33 986.017 453.576 985.141 455.508C981.327 456.189 969.953 455.91 965.511 455.897C965.565 448.656 967.465 415.182 962.254 411.665C939.499 396.314 945.255 444.384 945.413 455.996L924.961 456.049L924.819 392.485L945.008 392.468L944.987 400.88C950.541 394.429 952.157 392.647 960.492 390.861C971.288 390.118 976.186 393.135 982.984 401.227Z"/><path fill="#FFFFFF" d="M499.918 357.748C518.443 355.27 532.544 362.22 544.923 375.631C541.308 379.958 534.821 386.328 530.7 390.367L530.467 390.08C511.636 367.318 480.173 376.92 478.621 405.434C478.107 413.55 480.863 421.534 486.273 427.605C491.258 433.11 498.267 436.351 505.69 436.581C516.898 437.004 523.113 432.026 530.783 425.037C532.683 425.437 543.14 436.686 545.314 438.955C527.813 457.312 500.216 463.866 478.456 448.864C467.365 441.21 459.867 429.372 457.684 416.073C452.729 386.998 471.153 362.57 499.918 357.748Z"/><path fill="#FFFFFF" d="M578.879 390.878C587.04 389.785 597.636 391.83 604.613 396.429C611.937 401.278 616.958 408.913 618.51 417.559C620.207 426.448 618.247 435.646 613.073 443.071C606.68 452.209 599.017 455.456 588.535 457.362C568.854 459.362 551.433 448.239 548.357 428.09C547.042 419.596 549.232 410.933 554.426 404.085C560.613 395.858 568.945 392.225 578.879 390.878Z"/><path fill="white" d="M581.834 408.532C590.155 407.571 597.681 413.535 598.648 421.857C599.616 430.179 593.657 437.71 585.337 438.683C577.009 439.657 569.47 433.691 568.502 425.361C567.534 417.031 573.504 409.495 581.834 408.532Z"/><path fill="#FFFFFF" d="M872.889 390.893C919.324 387.207 927.139 451.026 879.567 457.34C860.414 458.884 843.571 447.132 841.114 427.566C839.964 418.986 842.327 410.306 847.666 403.493C854.362 395.021 862.589 392.106 872.889 390.893Z"/><path fill="white" d="M871.943 409.108C880.049 406.885 888.413 411.694 890.572 419.817C892.731 427.941 887.859 436.269 879.721 438.366C871.67 440.44 863.453 435.632 861.317 427.596C859.181 419.561 863.925 411.306 871.943 409.108Z"/><path fill="#FFFFFF" d="M768.195 350.743L788.191 350.666C788.11 366.746 788.167 382.826 788.362 398.906C805.423 383.092 826.821 390.78 828.979 413.875C830.186 426.786 829.299 442.64 829.289 455.851L808.752 455.888L808.768 436.003C808.834 430.952 809.858 414.813 805.781 411.98C782.935 396.104 788.059 444.574 788.155 456.119C781.508 456.087 774.86 456.104 768.213 456.171L768.195 350.743Z"/><path fill="#FFFFFF" d="M1067.71 390.824C1069.08 390.703 1070.46 390.64 1071.84 390.636C1097.26 390.431 1102.02 408.169 1101.81 429.455L1058.68 429.295C1059.89 432.835 1060.92 435.547 1063.99 437.94C1067.17 440.459 1071.26 441.532 1075.27 440.9C1080.63 440.083 1083.49 437.425 1086.55 433.322L1095.52 438.734C1097.03 439.706 1098.61 440.869 1100.09 441.912C1099.58 442.772 1099.07 443.623 1098.54 444.466C1089.36 458.986 1067.64 461.305 1053.97 452.384C1046.65 447.666 1041.55 440.201 1039.8 431.673C1035.64 410.732 1047.01 394.817 1067.71 390.824Z"/><path fill="white" d="M1070.31 404.552C1076.84 404.728 1084.35 406.953 1082.78 416.432C1082.66 417.138 1073.62 416.848 1072.34 416.853C1070.91 416.858 1060.51 416.99 1060.37 416.771C1058.31 413.374 1063.27 406.103 1068.42 404.954L1070.31 404.552Z"/><path fill="#FFFFFF" d="M758.594 392.255L758.894 392.532C758.898 392.789 720.38 481.65 717.682 487.887L695.701 487.653C701.003 474.751 707.574 462.135 712.305 449.096C712.305 449.096 711.774 447.051 711.72 446.841C704.247 428.999 695.188 410.112 687.239 392.288L709.571 392.398C713.913 402.196 719.382 418.668 723.47 429.364C728.151 417.112 732.743 404.827 737.246 392.509L758.594 392.255Z"/><path fill="#FFFFFF" d="M626.102 392.284L683.614 392.392C674.697 405.505 661.665 424.744 653.889 438.211L681.975 438.406L682.076 455.678C679.172 456.252 665.61 456.05 662.188 456.037L621.411 455.842C630.613 441.022 642.133 425.622 650.561 410.545C642.421 410.445 634.28 410.417 626.139 410.461L626.102 392.284Z"/><path fill="#FFFFFF" d="M384.347 304.391L408.295 304.411L408.228 391.175C402.917 388.895 389.802 379.833 384.538 376.341L384.347 304.391Z"/></svg>